# xmcd
#
# Track frame offsets: 
#        182
#        11382
#        24882
#        36707
#        50832
#        67032
#        80832
#        92832
#        104682
#        118832
#        134532
#        148332
#        159057
#        174207
#        187407
#        201807
#        216057
#
# Disc length: 2967 seconds
#
# Revision: 2
# Processed by: cddbd v1.5.2PL0 Copyright (c) Steve Scherf et al.
# Submitted via: ExactAudioCopy v0.99pb4
#
DISCID=020b9511
DTITLE=Commander Cody And His Lost Planet Airmen - Worst Case Scenario
DYEAR=1994
DGENRE=Rock
TTITLE0=Big Rock
TTITLE1=After The Lights Go Out
TTITLE2=Lose it Tonite
TTITLE3=Real Gone
TTITLE4=Green Light
TTITLE5=Good Morning Judge
TTITLE6=Working Man's Blues
TTITLE7=New Radio
TTITLE8=They Kicked Me Out Of The Band
TTITLE9=River City
TTITLE10=Buddy's Cafe
TTITLE11=Lat Ring of Fire
TTITLE12=Crash Pad Blues
TTITLE13=Keys To My Cadillac
TTITLE14=King of The Honky Tonks
TTITLE15=Mansion on The Hill
TTITLE16=Death Ray Boogie
EXTD=
EXTT0=
EXTT1=
EXTT2=
EXTT3=
EXTT4=
EXTT5=
EXTT6=
EXTT7=
EXTT8=
EXTT9=
EXTT10=
EXTT11=
EXTT12=
EXTT13=
EXTT14=
EXTT15=
EXTT16=
PLAYORDER=
